<?xml version="1.0" standalone="no"?>
<!DOCTYPE svg PUBLIC "-//W3C//DTD SVG 20010904//EN"
 "http://www.w3.org/TR/2001/REC-SVG-20010904/DTD/svg10.dtd">
<svg version="1.0" xmlns="http://www.w3.org/2000/svg"
 width="448.000000pt" height="448.000000pt" viewBox="0 0 448.000000 448.000000"
 preserveAspectRatio="xMidYMid meet">
<metadata>
Created by potrace 1.11, written by Peter Selinger 2001-2013
</metadata>
<g transform="translate(0.000000,448.000000) scale(0.100000,-0.100000)"
fill="#000000" stroke="none">
<path d="M949 4146 c-2 -2 -22 -6 -44 -9 -123 -15 -304 -115 -391 -217 -12
-14 -34 -38 -49 -55 -28 -32 -92 -150 -107 -200 -38 -121 -37 -96 -35 -1450 1
-720 6 -1323 10 -1338 36 -134 93 -240 179 -332 105 -113 212 -177 358 -214
72 -19 124 -20 1365 -20 1359 -1 1330 -1 1455 42 147 51 314 198 387 342 36
70 50 108 67 180 14 62 15 219 15 1360 -1 1233 -1 1293 -20 1368 -53 218 -223
414 -429 495 -135 53 -86 52 -1471 52 -707 0 -1287 -2 -1290 -4z m554 -651
c20 -8 48 -31 64 -52 l28 -36 3 -429 3 -428 639 0 640 0 0 416 c0 463 0 460
68 512 35 27 36 27 236 30 228 4 255 -2 303 -65 l28 -36 3 -1151 c1 -633 0
-1165 -3 -1183 -7 -37 -59 -97 -98 -112 -17 -7 -108 -11 -219 -11 -214 0 -239
6 -286 68 l-27 35 -3 429 -3 428 -639 0 -640 0 0 -418 c0 -470 1 -461 -76
-514 -39 -26 -40 -26 -237 -28 -222 -1 -247 5 -295 68 l-27 35 0 1177 0 1177
27 35 c47 62 70 68 284 68 147 0 200 -3 227 -15z"/>
</g>
</svg>
