<?xml version="1.0" standalone="no"?>
<!DOCTYPE svg PUBLIC "-//W3C//DTD SVG 20010904//EN"
 "http://www.w3.org/TR/2001/REC-SVG-20010904/DTD/svg10.dtd">
<svg version="1.0" xmlns="http://www.w3.org/2000/svg"
 width="256.000000pt" height="256.000000pt" viewBox="0 0 256.000000 256.000000"
 preserveAspectRatio="xMidYMid meet">
<metadata>
Created by potrace 1.11, written by Peter Selinger 2001-2013
</metadata>
<g transform="translate(0.000000,256.000000) scale(0.100000,-0.100000)"
fill="#000000" stroke="none">
<path d="M1160 2401 c-14 -8 -108 -23 -157 -25 -11 -1 -19 -4 -16 -8 2 -5 1
-8 -4 -9 -35 -3 -75 -17 -153 -52 -25 -12 -47 -21 -50 -22 -5 -1 -95 -53 -134
-78 -11 -7 -27 -19 -36 -27 -73 -63 -84 -69 -99 -57 -14 10 -14 10 -4 -3 10
-13 5 -22 -24 -50 -39 -39 -155 -178 -151 -182 5 -6 -36 -67 -43 -63 -4 3 -6
-1 -6 -8 1 -26 -26 -77 -41 -77 -13 0 -14 -2 -4 -9 11 -6 11 -13 3 -30 -6 -11
-15 -30 -21 -41 -5 -11 -10 -27 -10 -35 0 -9 -4 -14 -8 -11 -5 3 -8 -8 -7 -25
1 -16 -2 -32 -7 -35 -4 -3 -6 -9 -3 -14 3 -5 1 -11 -4 -15 -5 -3 -8 -15 -6
-26 3 -14 0 -19 -9 -16 -14 6 -16 -16 -3 -29 12 -12 8 -26 -5 -18 -9 5 -9 2 1
-9 7 -9 9 -17 4 -17 -12 0 -11 -39 1 -59 6 -9 5 -12 -2 -7 -7 4 -10 -6 -8 -34
2 -22 -1 -40 -5 -40 -5 0 -9 -5 -9 -11 0 -5 5 -7 10 -4 16 10 12 -7 -7 -27
-13 -15 -14 -19 -3 -16 16 4 21 -23 5 -34 -5 -4 -1 -8 10 -8 17 0 17 -2 5 -10
-8 -5 -10 -10 -4 -10 6 0 11 -7 11 -15 0 -8 -4 -12 -9 -9 -4 3 -8 0 -8 -5 0
-6 5 -11 10 -11 6 0 10 -7 10 -16 0 -8 -5 -12 -10 -9 -6 3 -10 1 -10 -4 0 -6
8 -11 17 -11 9 0 14 -3 10 -6 -3 -3 -1 -17 4 -31 7 -18 6 -30 -3 -41 -7 -9 -8
-13 -2 -9 6 3 16 -5 23 -20 10 -22 10 -25 -1 -17 -8 5 -6 2 4 -8 21 -19 24
-33 6 -22 -10 6 -10 5 -1 -8 7 -8 10 -18 6 -21 -3 -4 -1 -7 5 -7 7 0 12 -9 12
-20 0 -11 5 -20 11 -20 6 0 9 -7 5 -15 -3 -8 -1 -15 5 -15 6 0 7 -4 4 -10 -3
-5 -1 -10 4 -10 6 0 11 -7 11 -15 0 -8 5 -15 11 -15 5 0 7 -5 4 -10 -4 -6 -11
-7 -17 -4 -7 4 -8 2 -4 -5 4 -6 11 -9 16 -6 12 7 48 -46 45 -67 -2 -10 2 -16
8 -15 7 1 11 -4 9 -10 -1 -7 6 -13 15 -13 15 0 16 -2 3 -10 -13 -8 -12 -10 3
-10 9 0 16 -6 15 -13 -2 -6 2 -11 9 -10 6 1 14 -4 17 -13 3 -8 2 -12 -3 -9 -5
3 -13 1 -16 -5 -4 -6 -3 -10 2 -9 21 4 44 -2 39 -10 -3 -5 3 -11 14 -14 13 -3
18 -10 14 -21 -4 -11 -1 -16 10 -16 9 0 20 -9 24 -19 7 -19 10 -21 33 -21 8 0
7 -5 -1 -15 -11 -13 -10 -14 4 -9 9 3 16 1 16 -5 0 -6 7 -11 15 -11 8 0 15 -5
15 -11 0 -5 15 -16 34 -24 19 -8 38 -20 42 -27 6 -10 4 -10 -8 0 -11 9 -18 10
-23 2 -4 -6 -3 -10 2 -9 19 5 94 -31 87 -42 -2 -4 8 -9 23 -11 20 -2 28 -8 27
-21 -2 -14 1 -15 12 -6 11 9 14 9 14 -1 0 -7 7 -10 15 -6 10 4 19 -2 25 -17 7
-18 9 -19 9 -4 1 10 6 15 11 12 6 -4 8 -10 5 -15 -3 -5 0 -12 6 -16 8 -4 9 -3
5 4 -4 7 -2 12 3 12 6 0 11 -4 11 -9 0 -5 7 -12 16 -15 10 -4 13 -2 8 6 -5 8
-2 9 10 5 10 -4 20 -7 22 -7 3 0 2 -6 -2 -12 -5 -8 0 -7 11 2 11 9 16 10 11 2
-5 -8 0 -12 16 -12 13 0 34 -8 48 -17 22 -16 23 -16 17 0 -3 9 -4 17 -1 17 2
0 9 -10 14 -22 7 -19 9 -19 9 -5 1 10 6 15 11 12 6 -4 8 -10 6 -14 -3 -4 1 -8
9 -8 8 0 12 4 9 9 -3 4 0 8 5 8 6 0 11 -8 11 -17 0 -15 1 -15 13 2 11 14 16
15 22 5 6 -9 4 -11 -6 -5 -8 5 -11 4 -6 0 10 -12 47 -14 47 -3 0 5 5 6 10 3 6
-4 8 -10 6 -14 -3 -4 2 -8 10 -8 8 0 13 6 10 13 -3 7 2 10 15 7 10 -3 16 -9
13 -14 -3 -5 2 -6 10 -3 9 3 13 11 9 17 -4 6 -1 7 8 1 8 -5 23 -7 34 -6 16 2
17 1 5 -7 -12 -8 -11 -10 7 -8 12 0 20 4 17 8 -2 4 7 9 21 11 22 5 24 3 13
-11 -12 -14 -11 -14 12 0 17 11 32 14 47 8 14 -5 25 -4 29 3 4 7 3 8 -4 4 -7
-4 -12 -2 -12 3 0 14 13 14 28 -1 9 -9 12 -9 12 0 0 7 5 12 11 12 5 0 7 -6 3
-13 -5 -8 -2 -7 9 2 15 12 41 19 85 23 6 1 12 6 12 11 0 5 6 4 14 -2 10 -9 16
-8 26 4 7 8 19 15 28 15 8 0 24 8 35 17 11 10 17 12 13 6 -4 -7 -2 -13 3 -13
6 0 11 5 11 10 0 6 8 13 18 17 9 3 26 13 36 22 11 9 16 10 12 4 -11 -20 12
-15 32 5 10 10 26 18 36 16 15 -2 15 0 4 14 -10 13 -10 14 0 8 7 -4 19 -2 27
4 8 6 20 8 27 4 8 -5 8 -1 -2 11 -9 12 -10 16 -2 11 7 -4 19 0 30 11 9 11 13
12 7 3 -7 -11 -5 -11 11 3 11 9 25 14 29 10 5 -5 3 0 -4 10 -12 15 -12 17 4
11 14 -6 16 -4 10 6 -6 10 -4 12 9 7 9 -4 15 -3 12 2 -3 5 5 17 19 27 13 10
21 23 17 28 -3 6 1 5 10 -2 13 -10 18 -10 24 -1 4 8 3 9 -4 5 -7 -4 -12 -2
-12 3 0 6 5 11 11 11 5 0 7 6 3 13 -5 8 -2 7 9 -2 10 -8 20 -11 24 -7 3 3 2 6
-4 6 -17 0 -10 30 9 36 10 3 16 10 13 15 -4 5 -2 9 4 9 5 0 21 18 34 40 13 22
26 38 29 35 3 -3 8 6 12 20 4 14 13 25 22 25 8 0 14 6 13 13 -2 23 13 57 24
50 7 -4 8 0 3 12 -5 15 -4 16 8 6 12 -10 13 -8 9 10 -5 17 -3 20 8 14 12 -7
12 -6 1 7 -11 14 -9 19 10 32 12 9 17 16 10 16 -7 0 -10 5 -7 10 4 6 11 8 16
5 5 -3 6 1 3 10 -4 8 -1 21 5 29 6 7 7 16 3 20 -4 4 2 14 12 22 12 8 15 14 7
14 -11 0 -11 3 -1 15 6 8 9 19 5 25 -3 5 2 10 12 11 11 0 13 3 5 6 -10 4 -10
8 0 21 10 12 10 14 1 8 -9 -5 -11 -2 -7 8 3 9 11 13 16 10 6 -4 5 4 -2 16 -11
20 -10 22 5 16 15 -5 16 -4 5 9 -11 13 -10 18 6 31 10 9 14 13 7 10 -6 -4 -14
-2 -18 4 -3 5 -1 10 6 10 9 0 9 3 0 14 -10 11 -8 17 6 25 10 6 13 11 6 11 -15
0 -10 49 6 60 10 5 9 9 -4 13 -17 7 -17 37 0 49 6 5 5 8 -3 8 -8 0 -11 11 -8
35 3 23 0 35 -7 35 -7 0 -6 4 3 10 8 5 10 10 3 10 -6 0 -10 13 -9 30 1 17 -3
30 -8 30 -6 0 -2 8 9 17 14 11 15 14 3 10 -20 -7 -31 26 -14 44 8 9 8 10 -1 5
-8 -4 -13 -1 -14 8 -2 25 -4 30 -13 45 -7 11 -6 12 5 6 10 -6 9 -2 -2 11 -9
10 -20 30 -23 44 -14 50 -67 163 -79 168 -4 2 -3 10 4 18 10 12 9 13 -6 8 -13
-5 -16 -4 -11 4 4 7 3 12 -2 12 -5 0 -15 12 -23 28 -8 15 -22 35 -33 45 -10 9
-16 17 -13 17 3 0 -5 12 -18 26 -14 15 -22 31 -18 37 3 5 2 7 -4 4 -12 -8 -65
48 -55 58 4 4 0 5 -8 3 -8 -2 -14 3 -13 9 2 7 0 12 -5 11 -12 -4 -72 45 -66
54 3 5 2 7 -3 6 -13 -4 -63 33 -58 42 3 5 0 12 -6 16 -8 4 -9 3 -5 -4 12 -19
-1 -14 -72 28 -37 22 -70 40 -74 40 -5 0 -24 9 -43 20 -20 11 -42 20 -51 20
-8 0 -13 3 -11 8 3 4 -9 8 -26 9 -17 1 -33 6 -36 10 -3 5 -12 8 -18 9 -7 1
-22 2 -34 3 -11 0 -18 4 -16 9 3 4 -22 8 -56 9 -33 1 -63 7 -67 13 -6 9 -9 9
-14 1 -4 -6 -13 -8 -19 -4 -15 9 -183 7 -198 -3 -8 -4 -9 -3 -5 4 8 14 6 14
-14 3z"/>
<path d="M2270 711 c0 -6 4 -13 10 -16 6 -3 7 1 4 9 -7 18 -14 21 -14 7z"/>
<path d="M2195 600 c3 -5 8 -10 11 -10 2 0 4 5 4 10 0 6 -5 10 -11 10 -5 0 -7
-4 -4 -10z"/>
<path d="M1773 245 c0 -8 4 -12 9 -9 5 3 6 10 3 15 -9 13 -12 11 -12 -6z"/>
<path d="M1826 238 c3 -5 10 -6 15 -3 13 9 11 12 -6 12 -8 0 -12 -4 -9 -9z"/>
</g>
</svg>
